# xmcd CD database file
#
# Track frame offsets:
#	150
#	31040
#	58319
#	81589
#	102485
#	131946
#	151713
#	175563
#	203009
#	236599
#	257111
#	286536
#	305099
#
# Disc length: 4343 seconds
#
# Revision: 0
# Processed by: cddbd v1.5.2PL0 Copyright (c) Steve Scherf et al.
# Submitted via: CDex 1.70beta2
#
DISCID=af10f50d
DTITLE=Jukka Perko - Retrospective
DYEAR=2006
DGENRE=Jazz
TTITLE0=Sadih
TTITLE1=Bangladesh
TTITLE2=Pallokentällä
TTITLE3=Synnyinseutu
TTITLE4=Photograph
TTITLE5=Hintriikki
TTITLE6=Hurmio
TTITLE7=Mustasukkaisuutta
TTITLE8=Suojelusenkeli
TTITLE9=Minä vaivainen, vain mato matkamies maan
TTITLE10=Nyt maailman ahdistavan
TTITLE11=Tahdon
TTITLE12=Uudella rajalla
EXTD=YEAR: 2006
EXTT0=
EXTT1=
EXTT2=
EXTT3=
EXTT4=
EXTT5=
EXTT6=
EXTT7=
EXTT8=
EXTT9=
EXTT10=
EXTT11=
EXTT12=
PLAYORDER=
